/* XPM */
static char *_4dafba4838642d1b11d8dcf28b57314FKDYWSjU3GZnOYj0[] = {
/* columns rows colors chars-per-pixel */
"64 64 2 1 ",
"  c None",
". c #04B00F",
/* pixels */
"                          ............                          ",
"                      ....................                      ",
"                   ..........      ..........                   ",
"                 .......                .......                 ",
"                .....     ............     .....                ",
"              .....    ..................    .....              ",
"             ....   ........................   ....             ",
"            ...   ............................   ....           ",
"          ....   ..............................   ....          ",
"         ....  ..................................  ....         ",
"        ....  ....................................  ....        ",
"        ...  ......................................  ....       ",
"       ...  ........................................  ...       ",
"      ...  ..........................................  ...      ",
"     ...  ............................................  ...     ",
"     ... .............................................. ...     ",
"    ...  ..............................................  ...    ",
"    ..  ................................................  ..    ",
"   ...  ................................................  ...   ",
"   ..  ..................................................  ..   ",
"  ...  ..................................................  ...  ",
"  ... ....................................................  ..  ",
"  ..  ...           ..        ...        ...           ...  ..  ",
" ... ....           ..        ..          ..           .... ... ",
" ... ....           ..        ..          ..           .... ... ",
" ..  ....           ..        .     ..    ..           ....  .. ",
" ..  .......     .....     ....     ..    .....     .......  .. ",
"... ........     .....     ....     ..     ....     ........ ...",
"... ........     .....     ....      ..........     ........ ...",
"... ........     .....     .....      .........     ........ ...",
"... ........     .....        ..        .......     ........ ...",
"... ........     .....        ...        ......     ........ ...",
"... ........     .....        ....        .....     ........ ...",
"... ........     .....       ......        ....     ........ ...",
"... ........     .....     ..........      ....     ........ ...",
"... ........     .....     ....     ..     ....     ........ ...",
"... ........     .....     ....     ..     ....     ........ ...",
" ..  .......     .....     ....     ..     ....     .......  .. ",
" ..  .......     .....        ..    ..     ....     .......  .. ",
" ... .......     .....        ..           ....     ....... ... ",
" ... .......     .....        ..          .....     ....... ... ",
"  ..  ......     .....        ....       ......     ......  ..  ",
"  ..  .................................................... ...  ",
"  ...  ..................................................  ...  ",
"   ..  ..................................................  ..   ",
"   ...  ................................................  ...   ",
"    ..  ................................................  ..    ",
"    ...  ..............................................  ...    ",
"     ... .............................................. ...     ",
"     ...  ............................................  ...     ",
"      ...  ..........................................  ...      ",
"       ...  ........................................  ...       ",
"       ....  ......................................  ....       ",
"        ....  ....................................  ....        ",
"         ....  ..................................  ....         ",
"          ....   ..............................   ....          ",
"           ....   ............................  .....           ",
"             ....   ........................   ....             ",
"              .....    ..................    .....              ",
"                .....     ............     .....                ",
"                 .......                .......                 ",
"                   ..........      ..........                   ",
"                      ....................                      ",
"                          ............                          "
};
