/* XPM */
static char *_09b47ed52ea455fd4fb46d2a0167ceeGWG4U1PVXQJczfNM[] = {
/* columns rows colors chars-per-pixel */
"32 32 2 1 ",
"  c #05008D",
". c #0900FF",
/* pixels */
"................................",
"................................",
"................................",
"................................",
"................................",
"................................",
"................................",
"................................",
"................................",
"................................",
"................................",
"................................",
"................................",
"................................",
"................................",
"................................",
"................................",
"................................",
"................................",
"................................",
"................................",
"................................",
"................................",
"................................",
"................................",
"................................",
"................................",
"................................",
"................................",
"................................",
"................................",
"                                "
};
