/* XPM */
static char *_fb9ca91410b410cde6762e398d48611IjxWFewUBhBJQ2by[] = {
/* columns rows colors chars-per-pixel */
"16 16 109 2 ",
"   c None",
".  c #4C4C4C",
"X  c gray36",
"o  c #644C4D",
"O  c #644C4E",
"+  c #646464",
"@  c #686868",
"#  c #6A6A6A",
"$  c #7E7E7E",
"%  c #C1121C",
"&  c #C2141E",
"*  c #C2151F",
"=  c #C21620",
"-  c #C21720",
";  c #C31822",
":  c #C31922",
">  c #C31B25",
",  c #C41D26",
"<  c #C5202A",
"1  c #C4222B",
"2  c #C5232C",
"3  c #C6242D",
"4  c #C5252E",
"5  c #C6252E",
"6  c #C72730",
"7  c #C32831",
"8  c #C72932",
"9  c #C82D35",
"0  c #C82D36",
"q  c #C82E37",
"w  c #C53139",
"e  c #C73039",
"r  c #C6333B",
"t  c #C5333C",
"y  c #C6363E",
"u  c #C93139",
"i  c #CA333C",
"p  c #C63E46",
"a  c #C73F46",
"s  c #CC3B43",
"d  c #CD3F47",
"f  c #836B6C",
"g  c #846C6D",
"h  c #866E6F",
"j  c #876F70",
"k  c #BD676C",
"l  c #B5686C",
"z  c #B76B6F",
"x  c #A77073",
"c  c #A17B7D",
"v  c #AD787B",
"b  c #B8787B",
"n  c #BE787B",
"m  c #C24A51",
"M  c #C44950",
"N  c #C74C53",
"B  c #D04B52",
"V  c #C85056",
"C  c #C1555A",
"Z  c #C0565C",
"A  c #C5595E",
"S  c #C4595F",
"D  c #D2545B",
"F  c #D2575E",
"G  c #D4646A",
"H  c #C36D71",
"J  c #C16F74",
"K  c #D96E74",
"L  c #DB767C",
"P  c gray51",
"I  c #868686",
"U  c #958485",
"Y  c #939393",
"T  c #9A9A9A",
"R  c #A98486",
"E  c #AD8789",
"W  c gray64",
"Q  c #AEAEAE",
"!  c #DE8388",
"~  c #DF8388",
"^  c #E59B9F",
"/  c #C8B0B1",
"(  c #CCB4B6",
")  c #E6A0A3",
"_  c #E8A5A9",
"`  c #ECB6B8",
"'  c gray79",
"]  c #D7D7D7",
"[  c #EEC0C2",
"{  c #E4CCCD",
"}  c #F1C9CB",
"|  c #F2CFD0",
" . c #F5D9DB",
".. c #F6DCDD",
"X. c #F7DEE0",
"o. c #F7DFE0",
"O. c #E7E7E7",
"+. c #F8E6E7",
"@. c #FAF1F2",
"#. c #FCF2F2",
"$. c #FCF2F3",
"%. c #F9F9F9",
"&. c #FDF9F9",
"*. c #FDFBFB",
"=. c #FDFDFD",
"-. c #FEFDFD",
";. c #FEFEFE",
":. c #FFFEFE",
">. c white",
/* pixels */
"                                ",
"              M r               ",
"            l ; % A             ",
"            r q B > b           ",
"          C = _ } 2 M           ",
"        x 5 B $.>.L % J         ",
"        m , ` >.>. .u r         ",
"      l > K &.>.>.>.^ ; S       ",
"    v t i ..>.>.>.>.$.D 1 H     ",
"    p ; ) >.>.>.>.>.>.} 5 5 E   ",
"  k % D @.>.>.=.>.%.>.%.! = V   ",
"c 2 s R X P @ Y I $ T X U G * n ",
"N = [ >.# ' . Q W + ] @ O.+.6 r ",
"* D o.o.g ( o j j o / f { o.~ % ",
"% 2 0 0 9 9 9 9 7 7 q 9 q q 6 % ",
"Z Z Z Z Z Z Z Z Z Z Z Z C Z Z Z "
};
